<?xml version="1.0" standalone="no"?>
<!DOCTYPE svg PUBLIC "-//W3C//DTD SVG 20010904//EN"
 "http://www.w3.org/TR/2001/REC-SVG-20010904/DTD/svg10.dtd">
<svg version="1.0" xmlns="http://www.w3.org/2000/svg"
 width="600.000000pt" height="600.000000pt" viewBox="0 0 600.000000 600.000000"
 preserveAspectRatio="xMidYMid meet">
<metadata>
Created by potrace 1.11, written by Peter Selinger 2001-2013
</metadata>
<g transform="translate(0.000000,600.000000) scale(0.100000,-0.100000)"
fill="#000000" stroke="none">
<path d="M1774 5571 c-2 -2 -4 -728 -4 -1613 0 -1284 -3 -1608 -12 -1602 -10
6 -10 4 0 -7 6 -7 12 -29 12 -49 0 -20 -6 -42 -12 -49 -10 -11 -10 -13 0 -7
16 9 16 -16 0 -33 -10 -11 -10 -13 0 -7 6 4 12 2 12 -3 0 -6 -6 -11 -12 -11
-10 0 -10 -2 -1 -8 15 -9 14 -74 -1 -84 -8 -5 -7 -8 2 -8 6 0 12 -6 12 -14 0
-8 -6 -17 -12 -19 -10 -4 -10 -6 0 -6 6 -1 12 -8 12 -16 0 -8 -6 -15 -12 -15
-9 0 -8 -4 2 -10 13 -8 13 -13 2 -31 -8 -11 -9 -18 -3 -14 15 9 14 -8 -1 -24
-10 -11 -10 -13 0 -7 14 8 17 -10 2 -19 -5 -3 -10 -12 -10 -18 0 -7 4 -6 10 3
6 10 9 6 8 -18 -1 -20 -5 -29 -12 -25 -6 4 -5 -1 3 -11 13 -15 13 -19 0 -27
-9 -6 -10 -9 -2 -9 10 0 13 -154 14 -698 1 -801 0 -723 12 -715 6 4 8 0 4 -10
-4 -10 -2 -14 7 -11 7 3 13 11 13 19 0 8 -4 12 -8 9 -4 -2 -10 0 -14 5 -5 10
33 7 43 -3 2 -3 12 -1 21 4 10 5 23 5 31 0 9 -5 19 -5 27 1 8 7 18 7 32 0 12
-7 22 -7 25 -2 9 14 39 7 44 -10 2 -8 0 -10 -5 -4 -4 6 -15 11 -23 13 -11 3
-12 1 -3 -8 6 -7 25 -13 41 -15 23 -2 29 1 25 12 -5 12 -7 12 -15 1 -8 -11 -9
-10 -6 1 2 8 12 15 21 17 9 1 15 -1 12 -6 -2 -4 4 -15 14 -24 16 -15 19 -15
24 -2 4 9 1 18 -5 22 -7 4 -8 3 -4 -4 4 -7 2 -12 -3 -12 -6 0 -11 7 -11 15 0
17 9 19 30 6 8 -6 19 -7 25 -3 21 13 33 10 30 -9 -2 -10 1 -22 7 -25 7 -4 8
-2 4 4 -4 7 -3 12 3 12 6 0 8 6 5 14 -4 9 2 13 20 11 35 -4 46 -13 40 -33 -5
-14 -4 -14 4 -2 6 8 9 17 6 21 -2 4 0 10 5 13 16 10 24 -14 11 -29 -7 -9 -8
-15 -2 -15 9 0 26 28 24 41 -2 11 62 2 66 -9 2 -7 8 -12 14 -12 6 0 8 6 5 13
-4 10 11 13 62 12 37 -1 72 -5 78 -8 7 -4 14 -3 17 1 4 8 72 9 101 2 6 -1 12
-1 15 0 15 7 69 6 64 -1 -3 -5 -1 -9 5 -9 6 0 8 -8 5 -17 -5 -15 -4 -15 4 -3
6 8 9 17 6 21 -2 4 0 10 5 13 16 10 24 -14 11 -29 -7 -9 -8 -15 -2 -15 9 0 26
28 24 41 -2 11 62 2 66 -9 2 -7 8 -12 14 -12 6 0 8 6 5 13 -3 9 8 12 38 13 27
0 42 -4 42 -13 0 -6 -5 -9 -11 -5 -12 8 -58 11 -51 3 3 -2 0 -10 -6 -18 -8 -8
-8 -13 -1 -13 6 0 12 4 14 9 5 15 43 18 41 4 -5 -23 14 -13 26 14 8 18 15 23
23 15 6 -6 17 -8 24 -5 8 3 14 1 14 -5 0 -5 -10 -9 -22 -8 -11 0 -23 -6 -25
-14 -4 -13 -3 -13 6 0 10 13 11 13 11 0 0 -9 3 -11 8 -5 11 16 45 19 37 3 -4
-7 2 -2 13 11 21 26 54 38 46 16 -3 -7 -1 -15 4 -19 5 -3 8 7 7 23 -1 18 3 28
12 28 10 0 13 -8 8 -26 -4 -17 -3 -21 3 -12 7 9 11 10 17 2 5 -9 10 -9 20 -1
11 9 19 8 35 -3 11 -7 18 -17 15 -20 -3 -4 -2 -5 2 -2 10 8 13 36 4 30 -5 -2
-16 1 -26 9 -15 11 -16 13 -1 13 9 0 16 -5 16 -11 0 -6 5 -4 10 4 5 8 10 10
10 4 0 -6 17 -10 38 -9 20 1 44 -2 53 -6 9 -5 19 -5 23 -2 4 4 13 8 21 9 11 2
12 -2 5 -16 -13 -25 -12 -40 1 -17 10 17 12 17 28 2 21 -18 51 -10 51 14 -1
14 -2 14 -11 -1 -5 -10 -15 -18 -21 -18 -7 0 -6 5 2 15 10 12 8 14 -9 10 -12
-2 -21 0 -21 4 0 4 17 8 39 7 23 0 37 -5 34 -12 -2 -6 3 -17 12 -24 10 -8 15
-9 15 -1 0 6 -4 11 -10 11 -5 0 -7 6 -4 14 3 7 16 12 30 10 13 -1 24 1 24 5 0
5 15 7 33 6 17 -1 37 1 42 4 10 5 38 10 83 13 12 1 22 6 22 10 0 4 5 8 11 8 5
0 8 -4 5 -9 -3 -5 1 -11 9 -15 8 -3 17 -1 20 5 4 5 11 6 17 3 7 -4 8 -2 4 5
-6 9 -11 9 -22 0 -8 -7 -14 -7 -14 -1 0 17 25 20 50 7 28 -15 52 -3 43 21 -3
8 0 14 6 14 6 0 11 -5 11 -11 0 -5 5 -7 10 -4 6 4 7 12 4 18 -5 9 -4 9 6 0 7
-6 19 -9 28 -6 11 5 13 3 7 -7 -5 -9 -4 -11 4 -6 17 11 2 29 -18 21 -12 -5
-13 -3 -5 5 9 9 17 9 32 1 27 -14 29 -14 36 5 5 14 4 15 -8 5 -11 -9 -16 -9
-22 0 -4 7 -3 9 4 5 6 -3 13 -2 17 4 4 6 11 8 16 5 5 -4 9 -2 9 3 0 6 7 13 16
16 14 5 15 4 4 -9 -7 -8 -9 -15 -4 -15 5 0 2 -5 -6 -11 -13 -9 -13 -10 0 -6 8
2 14 10 12 17 -2 8 3 10 13 6 9 -3 13 -2 10 4 -3 6 0 10 7 10 10 0 9 3 -2 11
-13 9 -13 10 0 6 8 -2 14 -13 13 -23 -1 -18 -1 -18 13 1 8 11 18 19 22 17 3
-2 8 2 10 10 2 8 0 9 -5 3 -11 -13 -33 -17 -33 -6 0 13 27 21 47 14 10 -4 14
-2 10 4 -4 6 0 16 8 23 8 7 15 9 15 6 0 -4 9 2 21 13 13 12 30 18 44 15 13 -2
27 0 30 6 4 6 10 8 14 6 4 -3 8 1 8 9 0 13 -3 13 -18 -1 -14 -12 -18 -13 -25
-2 -4 7 -4 10 0 6 5 -4 17 2 29 12 16 16 24 17 41 8 19 -10 20 -10 7 6 -12 15
-12 16 5 10 10 -4 16 -3 11 1 -11 13 23 44 41 38 10 -4 13 -2 8 5 -4 7 -1 12
9 12 9 0 13 4 10 10 -3 5 -1 10 4 10 6 0 11 -4 11 -10 0 -5 4 -10 10 -10 12 0
9 22 -5 33 -5 5 6 6 25 3 33 -6 33 -6 15 10 -19 14 -19 15 -1 10 14 -5 17 -2
12 10 -5 13 -2 15 14 11 23 -6 36 8 19 19 -8 5 -9 3 -4 -6 5 -9 4 -11 -3 -6
-13 8 68 96 81 89 4 -2 7 3 7 13 0 11 6 15 20 11 17 -4 18 -2 9 14 -7 15 -6
19 6 19 8 0 14 5 12 12 -1 6 9 17 23 25 14 7 20 13 13 13 -7 0 -10 7 -7 15 6
15 26 22 21 8 -2 -8 6 -13 18 -13 3 0 1 8 -4 18 -7 14 -5 24 12 43 12 14 30
38 39 54 9 17 21 30 27 30 5 0 13 4 18 9 5 5 3 6 -4 2 -7 -4 -13 -2 -13 3 0 6
8 11 18 11 14 0 15 2 2 10 -13 8 -13 11 -1 22 10 10 12 10 7 1 -4 -7 -2 -13 3
-13 6 0 11 6 11 14 0 8 3 16 8 19 4 2 1 2 -5 1 -7 -2 -13 1 -13 6 0 6 5 10 10
10 6 0 10 7 10 15 0 8 8 15 18 16 10 0 12 3 5 6 -10 3 -10 10 -2 24 5 11 14
17 19 14 5 -3 12 0 16 6 4 8 3 9 -4 5 -8 -5 -11 0 -8 16 2 13 8 22 14 21 5 -1
9 6 9 15 0 36 3 43 16 36 7 -5 6 0 -3 11 -14 17 -13 18 2 12 10 -3 17 -3 17 1
-1 4 0 9 1 12 8 22 7 39 -3 33 -9 -5 -9 -3 0 8 11 14 13 19 13 40 0 5 6 7 13
3 9 -6 9 -5 0 7 -10 12 -10 18 -1 27 7 7 8 12 3 12 -5 0 0 7 11 16 10 8 13 13
7 9 -17 -8 -17 7 0 24 7 9 8 12 0 7 -7 -4 -9 1 -6 14 3 11 9 18 13 15 4 -2 5
7 2 21 -3 15 3 33 14 47 17 19 17 20 1 8 -16 -13 -17 -12 -9 10 4 13 8 36 7
51 0 16 3 28 8 28 4 0 5 5 1 11 -3 6 0 15 7 20 10 6 11 9 2 9 -7 0 -13 5 -13
11 0 5 5 7 12 3 7 -5 8 -3 2 7 -12 20 -14 39 -3 39 6 0 7 6 1 17 -5 9 -6 29
-2 44 5 16 4 31 -2 37 -6 6 -6 17 1 30 6 10 7 23 3 26 -10 11 -11 66 -1 66 5
0 9 5 9 11 0 5 -5 7 -11 3 -8 -5 -10 1 -7 20 3 14 2 26 -1 26 -3 0 -7 15 -7
33 -1 17 -5 46 -9 62 -4 17 -8 39 -9 50 -2 11 -6 27 -8 35 -5 15 -28 107 -32
125 -1 6 -5 15 -9 22 -4 6 -8 23 -9 37 -1 14 -5 26 -9 26 -4 0 -10 12 -14 28
-17 71 -161 328 -224 401 -12 13 -21 27 -21 31 0 10 -187 200 -240 244 -76 63
-221 155 -315 201 -104 51 -282 115 -324 117 -8 1 -2 11 15 25 16 13 34 21 41
19 7 -3 10 1 7 8 -7 18 22 40 42 32 13 -5 14 -3 6 6 -7 10 0 23 30 53 23 22
37 34 33 26 -6 -10 -4 -12 4 -7 6 4 10 15 9 23 -2 9 3 18 11 21 9 3 11 0 6 -9
-5 -8 1 -5 13 5 25 21 31 36 7 16 -21 -18 -18 0 5 30 11 14 20 30 20 37 0 6
15 26 33 44 17 18 25 29 17 25 -8 -4 -4 2 10 14 16 14 19 20 8 16 -15 -4 -16
-2 -6 19 10 23 21 30 41 26 5 -1 6 3 2 9 -3 6 -11 8 -16 5 -5 -3 -6 1 -3 9 3
9 11 13 17 9 5 -3 7 -2 4 4 -3 5 1 32 9 59 29 92 38 142 48 246 2 20 6 41 10
46 3 6 3 13 -2 16 -9 6 -8 59 3 75 3 6 1 11 -6 11 -8 0 -7 5 2 17 10 11 10 14
1 9 -8 -5 -11 -1 -9 16 2 13 0 38 -5 56 -5 17 -11 44 -13 60 -7 44 -10 56 -17
68 -4 6 -9 21 -11 35 -6 32 -37 108 -55 137 -8 12 -11 22 -8 22 4 0 2 6 -4 13
-5 6 -32 46 -59 87 -102 156 -240 278 -407 362 -80 39 -169 72 -225 83 -11 2
-28 6 -37 9 -9 3 -37 8 -62 12 -48 8 -1428 12 -1436 5z m3086 -4065 c0 -3 -4
-8 -10 -11 -5 -3 -10 -1 -10 4 0 6 5 11 10 11 6 0 10 -2 10 -4z m-1056 -1047
c-3 -5 -10 -7 -15 -3 -5 3 -7 10 -3 15 3 5 10 7 15 3 5 -3 7 -10 3 -15z m-656
-41 c-6 -16 -21 -14 -24 4 -1 11 3 15 12 11 8 -3 13 -10 12 -15z"/>
<path d="M4025 4070 c-3 -6 1 -7 9 -4 18 7 21 14 7 14 -6 0 -13 -4 -16 -10z"/>
<path d="M3970 3960 c0 -5 5 -10 10 -10 6 0 10 5 10 10 0 6 -4 10 -10 10 -5 0
-10 -4 -10 -10z"/>
<path d="M3951 3926 c-9 -11 -9 -16 1 -22 7 -4 10 -4 6 1 -4 4 -3 14 3 22 6 7
9 13 6 13 -2 0 -10 -6 -16 -14z"/>
<path d="M3850 3805 c-7 -9 -8 -15 -2 -15 5 0 12 7 16 15 3 8 4 15 2 15 -2 0
-9 -7 -16 -15z"/>
<path d="M3821 3770 c-10 -5 -9 -8 2 -13 7 -3 19 -2 26 3 10 5 9 8 -2 13 -7 3
-19 2 -26 -3z"/>
<path d="M3781 3731 c-8 -5 -9 -11 -3 -15 5 -3 12 1 16 9 6 17 6 18 -13 6z"/>
<path d="M3730 3685 c-7 -9 -8 -15 -2 -15 5 0 12 7 16 15 3 8 4 15 2 15 -2 0
-9 -7 -16 -15z"/>
<path d="M4689 1153 c-13 -16 -12 -17 4 -4 9 7 17 15 17 17 0 8 -8 3 -21 -13z"/>
<path d="M4635 1080 c-3 -5 -1 -10 4 -10 6 0 11 5 11 10 0 6 -2 10 -4 10 -3 0
-8 -4 -11 -10z"/>
<path d="M4575 1000 c-3 -5 -1 -10 4 -10 6 0 11 5 11 10 0 6 -2 10 -4 10 -3 0
-8 -4 -11 -10z"/>
<path d="M4510 899 c0 -5 5 -7 10 -4 6 3 10 8 10 11 0 2 -4 4 -10 4 -5 0 -10
-5 -10 -11z"/>
<path d="M4455 861 c-3 -5 -2 -12 3 -15 5 -3 9 1 9 9 0 17 -3 19 -12 6z"/>
<path d="M4282 714 c-14 -16 -5 -18 17 -5 7 5 9 11 5 14 -5 3 -15 -1 -22 -9z"/>
<path d="M4226 667 c3 -10 9 -15 12 -12 3 3 0 11 -7 18 -10 9 -11 8 -5 -6z"/>
<path d="M4131 617 c-6 -6 -11 -17 -11 -25 0 -11 -3 -12 -14 -3 -11 9 -16 9
-22 -1 -4 -7 -4 -10 1 -6 4 4 14 3 22 -4 11 -9 15 -7 20 11 3 13 9 18 12 13 4
-6 11 -5 18 3 16 17 -9 29 -26 12z"/>
<path d="M4196 613 c-6 -14 -5 -15 5 -6 7 7 10 15 7 18 -3 3 -9 -2 -12 -12z"/>
<path d="M4080 560 c-9 -6 -10 -10 -3 -10 6 0 15 5 18 10 8 12 4 12 -15 0z"/>
<path d="M3850 459 c0 -5 5 -7 10 -4 6 3 10 8 10 11 0 2 -4 4 -10 4 -5 0 -10
-5 -10 -11z"/>
<path d="M3641 431 c-8 -5 -23 -8 -33 -6 -20 4 -22 -3 -8 -25 8 -13 10 -12 10
3 0 10 4 16 9 13 4 -3 17 1 27 9 21 16 17 20 -5 6z"/>
<path d="M3687 427 c-3 -7 3 -13 14 -13 13 0 15 3 7 13 -6 7 -12 13 -13 13 -2
0 -5 -6 -8 -13z"/>
<path d="M3748 423 c7 -3 16 -2 19 1 4 3 -2 6 -13 5 -11 0 -14 -3 -6 -6z"/>
<path d="M3528 414 c-4 -3 -14 -7 -24 -8 -10 -2 -20 -9 -22 -17 -3 -11 -1 -11
7 1 6 8 11 11 11 7 0 -4 9 -3 19 3 16 8 22 6 30 -7 12 -20 14 -13 5 11 -6 16
-16 20 -26 10z"/>
<path d="M3566 407 c3 -10 9 -15 12 -12 3 3 0 11 -7 18 -10 9 -11 8 -5 -6z"/>
<path d="M3651 411 c-8 -5 -9 -11 -3 -15 5 -3 12 1 16 9 6 17 6 18 -13 6z"/>
<path d="M1855 399 c-4 -6 -14 -8 -22 -4 -13 4 -14 3 -3 -10 7 -9 13 -14 14
-13 1 2 8 11 15 21 7 9 11 17 8 17 -3 0 -9 -5 -12 -11z"/>
<path d="M1906 403 c-4 -5 -13 -8 -18 -8 -6 0 -13 -7 -15 -15 -4 -12 -3 -12 5
-1 8 11 10 11 15 0 4 -9 6 -10 6 -2 1 7 8 10 19 7 13 -5 14 -4 3 4 -11 8 -11
10 0 15 8 3 9 6 3 6 -6 1 -14 -2 -18 -6z"/>
<path d="M2120 395 c-7 -9 -10 -18 -6 -22 3 -3 6 0 6 8 0 11 2 12 9 1 7 -11 9
-11 14 2 8 21 -8 29 -23 11z"/>
<path d="M2199 408 c-6 -25 -6 -38 1 -38 12 0 20 29 10 35 -6 4 -10 5 -11 3z"/>
<path d="M2295 400 c-2 -3 0 -12 6 -20 7 -12 9 -12 9 -1 0 7 6 11 13 8 8 -3
14 0 14 7 0 12 -35 17 -42 6z"/>
<path d="M2385 401 c3 -2 0 -10 -6 -18 -9 -9 -8 -13 0 -13 6 0 11 5 11 10 0 6
7 10 16 10 9 0 12 -5 8 -12 -5 -9 -2 -9 9 1 9 7 17 19 17 25 0 6 -5 4 -10 -4
-5 -8 -10 -10 -10 -5 0 6 -9 11 -20 11 -10 0 -17 -2 -15 -5z"/>
<path d="M2451 398 c-1 -10 3 -18 8 -18 5 0 15 8 22 18 13 15 12 16 -3 4 -13
-10 -17 -10 -21 0 -4 8 -6 7 -6 -4z"/>
<path d="M2525 400 c-3 -5 -1 -10 4 -10 6 0 11 5 11 10 0 6 -2 10 -4 10 -3 0
-8 -4 -11 -10z"/>
<path d="M2550 405 c0 -5 4 -16 9 -23 6 -11 10 -10 15 4 3 9 4 19 1 22 -3 3
-5 -1 -5 -9 0 -11 -2 -11 -10 1 -5 8 -10 11 -10 5z"/>
<path d="M2596 394 c-3 -9 -4 -19 -1 -22 3 -3 5 1 5 9 0 11 2 11 10 -1 8 -12
10 -12 10 -1 0 11 3 11 17 0 11 -10 14 -10 9 -1 -4 6 -2 12 3 12 6 0 11 5 11
11 0 6 -5 7 -12 2 -17 -10 -32 -11 -39 0 -3 5 -9 1 -13 -9z"/>
<path d="M2673 390 c1 -11 4 -20 8 -20 10 0 19 27 12 34 -12 12 -22 5 -20 -14z"/>
<path d="M2775 400 c-2 -3 0 -12 6 -20 7 -12 9 -12 9 -1 0 7 6 11 13 8 8 -3
14 0 14 7 0 12 -35 17 -42 6z"/>
<path d="M3046 395 c-9 -26 -7 -32 5 -12 6 10 9 21 6 23 -2 3 -7 -2 -11 -11z"/>
<path d="M3240 398 c0 -5 8 -8 18 -6 9 2 16 -3 15 -9 -2 -7 2 -13 7 -13 6 0
10 5 10 10 0 6 0 13 0 17 0 4 -11 8 -25 9 -14 0 -25 -3 -25 -8z"/>
<path d="M3320 395 c-7 -9 -10 -18 -7 -21 3 -3 10 4 17 15 13 25 8 27 -10 6z"/>
<path d="M1946 388 c3 -5 10 -6 15 -3 13 9 11 12 -6 12 -8 0 -12 -4 -9 -9z"/>
<path d="M2495 389 c-4 -6 -5 -12 -2 -15 2 -3 7 2 10 11 7 17 1 20 -8 4z"/>
</g>
</svg>
