<svg width="0" height="0" style="position:absolute"><defs><svg viewBox="0 0 24 24" id="arrow-back" xmlns="http://www.w3.org/2000/svg"><path fill="none" d="M0 0h24v24H0z"/><path d="M20 11H7.8l5.6-5.6L12 4l-8 8 8 8 1.4-1.4L7.8 13H20v-2z"/></svg><svg viewBox="0 0 24 24" id="arrow-forward" xmlns="http://www.w3.org/2000/svg"><path d="M0 0h24v24H0z" fill="none"/><path d="M12 4l-1.41 1.41L16.17 11H4v2h12.17l-5.58 5.59L12 20l8-8z"/></svg><svg viewBox="0 0 24 24" id="comment" xmlns="http://www.w3.org/2000/svg"><path d="M22 4c0-1-1-2-2-2H4C3 2 2 3 2 4v12c0 1 1 2 2 2h14l4 4V4zm-4 10H6v-2h12v2zm0-3H6V9h12v2zm0-3H6V6h12v2z"/><path fill="none" d="M0 0h24v24H0z"/></svg><svg viewBox="0 0 512 512" id="facebook" xmlns="http://www.w3.org/2000/svg"><path fill="currentColor" d="M287 456V157c0-21 6-35 35-35h38V59c-7-1-29-3-55-3-54 0-91 33-91 94v306m143-254H152v72h196"/></svg><svg viewBox="0 0 512 512" id="github" xmlns="http://www.w3.org/2000/svg"><path fill="currentColor" d="M119 255c17 30 49 48 102 53-8 6-17 17-18 30-10 6-29 8-44 3-21-7-29-48-61-42-7 1-6 6 0 10 10 6 21 16 26 30 12 31 37 39 77 33v45c0 14-20 18-20 25 0 3 7 3 12 3 10 0 32-9 32-23 0-12 0-52 1-59 0-15 8-20 8-20s1 82-2 92c-4 13-10 11-10 17 0 9 26 2 35-17 7-15 4-95 3-94h7s0 37 1 53c0 17-1 39 9 50 7 7 29 19 29 8 0-6-12-12-12-29v-79c10 0 8 26 8 26l1 48s-2 18 19 25c8 3 24 3 25-1s-20-11-20-25v-49c0-36-5-49-22-60 53-5 86-18 102-53 10-20 12-44 12-62 0-50-24-67-29-76 7-38-1-55-5-60-14-5-48 12-66 24-30-9-94-8-118 2-44-31-67-26-67-26s-15 27-4 66c-15 18-25 31-26 65 0 27 3 44 15 67z"/></svg><svg viewBox="0 0 512 512" id="linkedin" xmlns="http://www.w3.org/2000/svg"><circle cx="104" cy="104" r="48" fill="currentColor"/><path d="M237 178v259M104 178v259" stroke="currentColor" stroke-width="86"/><path d="M279 293c0-26 18-53 48-53 31 0 43 24 43 59v138h86V289c0-80-42-116-99-116-45 0-67 25-78 42" fill="currentColor"/></svg><svg viewBox="0 0 24 24" id="menu" xmlns="http://www.w3.org/2000/svg"><path fill="none" d="M0 0h24v24H0z"/><path d="M3 18h18v-2H3v2zm0-5h18v-2H3v2zm0-7v2h18V6H3z"/></svg><svg viewBox="0 0 24 24" id="share" xmlns="http://www.w3.org/2000/svg"><path fill="none" d="M0 0h24v24H0z"/><path d="M18 16c-.8 0-1.4.4-2 .8l-7-4v-1.5l7-4c.5.4 1.2.7 2 .7 1.7 0 3-1.3 3-3s-1.3-3-3-3-3 1.3-3 3v.7l-7 4C7.5 9.4 6.8 9 6 9c-1.7 0-3 1.3-3 3s1.3 3 3 3c.8 0 1.5-.3 2-.8l7.2 4.2v.6c0 1.6 1.2 3 2.8 3 1.6 0 3-1.4 3-3s-1.4-3-3-3z"/></svg><svg viewBox="0 0 512 512" id="twitter" xmlns="http://www.w3.org/2000/svg"><path fill="currentColor" d="M456 133c-14 7-31 11-47 13 17-10 30-27 37-46-15 10-34 16-52 20-61-62-157-7-141 75-68-3-129-35-169-85-22 37-11 86 26 109-13 0-26-4-37-9 0 39 28 72 65 80-12 3-25 4-37 2 10 33 41 57 77 57-42 30-77 38-122 34 170 111 378-32 359-208 16-11 30-25 41-42z"/></svg></defs></svg>