<svg xmlns="http://www.w3.org/2000/svg" viewBox="0 0 478.6 478.6">
  <path d="M427.5 200.7c1.8-11.2 3-23.6 3.2-37.4 0-59.2-28.5-80.2-34-90 8-45-1.3-65.3-5.6-72.3-16-5.7-56 14.7-77 29-36-10.2-111-9.2-139 3C123-4.4 95.6 1.3 95.6 1.3s-18 31.7-5 78.3c-17 21.8-29.7 37.2-29.7 78 0 9.8 0 19 1 28C77 262.8 138 296.2 198 302c-9 6.3-19.7 19.3-21.2 35-11.4 7-34.3 9.2-52 4-25-8-34.6-57.7-72-50-8 1-6.4 6.2.6 11 11.3 7 22 16.3 30.2 36 6.2 15 19.5 42 62 42 16.5 0 28.2-2 28.2-2l.3 53.3c0 17.3-23 22-23 30.4 0 3.3 7.7 3.6 13.8 3.6 12.4 0 37.8-10.2 37.8-28V367c0-18.2 10-24 10-24s1 97.7-2.4 110.8c-4.2 15.3-12 13-12 20 0 10.2 30.8 2.5 41-20 8-17 4.5-112.8 4.5-112.8l8.2-.2s0 44-.3 64c-.3 20.7-2.4 47 10 59.3 8 8 32.8 23 32.8 10 0-7.5-17.4-14-17.4-34.3V345c10.6 0 12.8 31 12.8 31l3.8 57.7s-2.5 21 22.7 30c9 3 28 4 29-1.4 1-5.2-23-13-23-29.3 0-10 .5-16 .5-59s-5.7-59-26-72c58.7-6 119.5-32.2 130.5-101z"/>
</svg>
