<svg xmlns="http://www.w3.org/2000/svg" viewBox="0 0 315 315">
  <path d="M307.5 137h-19.8v-20c0-4-3.3-7.4-7.5-7.4h-26.7c-4.2 0-7.5 3.4-7.5 7.5v20h-19.8c-4 0-7.5 3.3-7.5 7.5V171c0 4.3 3.4 7.6 7.5 7.6H246v19.8c0 4 3.3 7.5 7.5 7.5h26.7c4.2 0 7.5-3.6 7.5-7.7v-19.8h19.8c4 0 7.5-3.3 7.5-7.5v-26.6c0-4.2-3.4-7.5-7.5-7.5zM102 104.2c9 0 17.7 2.4 25.2 7l8.5 6c3 2 7 1.5 9.5-1L170 91.6c1.6-1.6 2.4-3.8 2.2-6-.2-2.2-1.4-4.2-3.2-5.5l-14.4-9.7-1-.5-14-7s-.3 0-.5-.2c-12-4.7-24.5-7.2-37.5-7.2-26.8 0-52 10.3-71 29C11 103.4 0 129 0 156.8c-.2 27.8 10.2 53.7 29.4 73 19 19 45.8 30 73.8 30 27.6 0 53.6-11 71.2-29.6 14-14.8 22.5-34.7 24.7-57.3v-.8l.5-20.4v-1.3l-1.2-7c-.5-3.6-3.7-6.3-7.4-6.3h-87c-4 0-7.4 3.3-7.4 7.5v29.8c0 4.2 3.4 7.5 7.5 7.5h44.4c-2 4.5-5.2 9.2-9.2 13.5-8.7 9.5-21.8 15-36 15-14.3 0-28-5.6-37.7-15.5-20-20.4-19.8-56 .5-76.2 9.5-9.4 22.7-14.8 36-14.8z"/>
</svg>
