<svg xmlns="http://www.w3.org/2000/svg" viewBox="0 0 310 310">
  <path d="M72.2 99.7H10c-2.8 0-5 2.3-5 5v200c0 2.7 2.2 5 5 5h62c2.7 0 5-2.3 5-5v-200c0-2.7-2.3-5-5-5zM41 .3C18.5.3 0 18.7 0 41.3c0 22.7 18.4 41 41 41 22.7 0 41-18.3 41-41 0-22.6-18.3-41-41-41zm189.5 94.5c-25 0-43.5 10.7-54.7 23v-13c0-2.8-2.3-5-5-5h-59.6c-2.8 0-5 2.2-5 5v200c0 2.6 2.2 5 5 5h62c2.8 0 5-2.4 5-5v-99c0-33.4 9-46.4 32.4-46.4 25.3 0 27.3 20.8 27.3 48v97.3c0 2.7 2 5 5 5h62c2.7 0 5-2.3 5-5V195c0-49.6-9.6-100.2-79.6-100.2z"/>
</svg>
