<svg xmlns="http://www.w3.org/2000/svg" viewBox="0 0 612 612">
  <path d="M612 116.3c-22.5 10-46.7 16.7-72 19.7 25.8-15.5 45.7-40 55-69.4C571 81 544 91.4 515.4 97c-23-24.3-55.5-39.6-91.6-39.6C354.4 57.4 298 113.7 298 183c0 9.8 1.2 19.4 3.4 28.6C197 206.3 104.6 156.3 42.6 80.4c-10.8 18.5-17 40-17 63 0 43.6 22.2 82 56 104.6-20.7-.7-40-6.4-57-15.8v1.6c0 60.8 43.3 111.5 100.7 123-10.5 3-21.6 4.5-33 4.5-8.2 0-16-.8-23.7-2.4 16 50 62.3 86 117.3 87-43 34-97.4 54-156 54-10.3 0-20.3-.7-30-1.8C55.5 534 121.4 555 192.3 555c231 0 357.2-191.4 357.2-357.3l-.4-16.3c24.7-17.5 46-39.6 62.8-64.7z"/>
</svg>
